<svg width="127" height="34" viewBox="0 0 127 34" fill="none" xmlns="http://www.w3.org/2000/svg">
<g style="mix-blend-mode:luminosity" clip-path="url(#clip0_38625_1278)">
<path d="M52.8362 20.507V15.4727C52.8362 15.3414 52.748 15.2539 52.6159 15.2539H50.9418V13.2839H52.6159C52.748 13.2839 52.8362 13.1963 52.8362 13.065V9.91318H55.2151V13.065C55.2151 13.1963 55.3032 13.2839 55.4354 13.2839H57.7703V15.2539H55.4354C55.3032 15.2539 55.2151 15.3414 55.2151 15.4727V19.9379C55.2151 22.0392 55.964 22.2143 56.9333 22.2143C57.2857 22.2143 57.8143 22.1705 58.1227 22.1267V24.1842C57.7263 24.2279 57.0654 24.3155 56.3165 24.3155C55.3913 24.2717 52.8362 24.2717 52.8362 20.507ZM117.509 21.7327L119.447 20.7258C119.888 21.7327 120.725 22.3894 121.694 22.3894C122.443 22.3894 123.28 22.0829 123.28 21.1636C123.28 20.5508 122.883 20.2005 121.958 19.8941L120.637 19.4564C118.786 18.8873 117.861 17.8367 117.861 16.3482C117.861 14.4659 119.447 13.065 121.606 13.065C123.324 13.065 124.778 13.9843 125.483 15.429L123.544 16.4795C123.104 15.5602 122.399 15.035 121.562 15.035C120.725 15.035 120.152 15.4727 120.152 16.1294C120.152 16.6984 120.593 17.1363 121.474 17.3988L122.795 17.8367C124.734 18.4495 125.659 19.5001 125.659 20.9447C125.659 23.2212 123.676 24.4031 121.694 24.4031C119.711 24.3593 118.125 23.3525 117.509 21.7327ZM110.196 19.7628C110.152 19.8066 110.107 19.8504 110.107 19.8941V24.0967H107.684V8.55603H110.107V17.0487C110.107 17.1363 110.152 17.2237 110.24 17.2237C110.328 17.2675 110.416 17.2237 110.46 17.1799L114.381 13.2401H117.332L112.751 17.8367C112.663 17.9242 112.663 18.0118 112.751 18.0992L117.729 24.0967H114.777L110.945 19.3688C110.9 19.325 110.856 19.2812 110.812 19.2812C110.768 19.2812 110.724 19.2812 110.68 19.325L110.196 19.7628ZM106.495 14.7285L104.953 16.1732C104.072 15.5165 103.191 15.2101 102.222 15.2101C100.195 15.2101 98.6972 16.6984 98.6972 18.7122C98.6972 20.7258 100.195 22.2143 102.222 22.2143C103.103 22.2143 104.028 21.9078 104.997 21.2512L106.363 22.6958C104.38 24.1405 103.323 24.4031 101.957 24.4031C100.327 24.4031 98.8735 23.834 97.8161 22.7833C96.8028 21.7765 96.2302 20.2881 96.2302 18.7122C96.2302 15.429 98.6532 13.0212 102.001 13.0212C103.103 13.0212 104.733 13.1963 106.495 14.7285ZM95.1288 10.0445C95.1288 10.8325 94.468 11.4891 93.675 11.4891C92.882 11.4891 92.2211 10.8325 92.2211 10.0445C92.2211 9.25645 92.882 8.59982 93.675 8.59982C94.468 8.59982 95.1288 9.25645 95.1288 10.0445ZM94.9085 24.0967H92.4855V13.2839H94.9085V24.0967ZM87.199 19.3688V24.1405H84.7759V13.3277H87.1548V14.6409C87.1548 14.7285 87.199 14.8161 87.287 14.8598C87.3752 14.9036 87.4632 14.8598 87.5073 14.7723C88.124 13.7654 89.2695 13.1088 90.503 13.1088C90.6793 13.1088 90.8114 13.1088 90.8995 13.1526V15.604C90.7673 15.5602 90.5471 15.5602 90.3268 15.5602C88.3884 15.5165 87.199 17.0049 87.199 19.3688ZM74.2027 18.7122C74.2027 16.7422 75.7007 15.2101 77.639 15.2101C79.5774 15.2101 81.0753 16.7422 81.0753 18.7122C81.0753 20.6821 79.5774 22.2143 77.639 22.2143C75.7007 22.2143 74.2027 20.6821 74.2027 18.7122ZM74.423 22.8271C74.4671 22.8271 74.4671 22.8271 74.5111 22.8271C74.5551 22.8271 74.6433 22.8709 74.6873 22.9147C75.5243 23.8778 76.7579 24.4031 78.1677 24.4031C81.1634 24.4031 83.4543 21.9078 83.4543 18.7122C83.4543 17.1363 82.9256 15.7354 81.9123 14.6409C80.9432 13.5904 79.5774 13.0212 78.1236 13.0212C76.7579 13.0212 75.4803 13.5904 74.6433 14.5971C74.5993 14.6409 74.5111 14.6847 74.423 14.6409C74.3349 14.5971 74.2909 14.5535 74.2909 14.4659V8.59982H71.8678V24.1405H74.2909V23.046C74.2909 22.9147 74.3349 22.8709 74.423 22.8271ZM64.3785 22.2143C62.4842 22.2143 60.9422 20.6821 60.9422 18.7122C60.9422 16.7422 62.4401 15.2101 64.3785 15.2101C66.3169 15.2101 67.8148 16.7422 67.8148 18.7122C67.8148 20.6821 66.2729 22.2143 64.3785 22.2143ZM70.0616 24.0967V13.2839H67.6827V14.3783C67.6827 14.4659 67.6385 14.5535 67.5505 14.5535C67.4623 14.5971 67.3743 14.5534 67.3301 14.5097C66.5372 13.5466 65.3037 13.0212 63.8498 13.0212C60.8541 13.0212 58.5633 15.5165 58.5633 18.7122C58.5633 21.9078 60.8982 24.4031 63.8498 24.4031C65.2155 24.4031 66.4931 23.834 67.3301 22.8271C67.3743 22.7396 67.4623 22.7396 67.5505 22.7833C67.6385 22.8271 67.6827 22.8709 67.6827 22.9585V24.1405H70.0616V24.0967ZM43.9811 22.2143C42.0867 22.2143 40.5449 20.6821 40.5449 18.7122C40.5449 16.7422 42.0427 15.2101 43.9811 15.2101C45.8754 15.2101 47.4174 16.7422 47.4174 18.7122C47.4174 20.6821 45.8754 22.2143 43.9811 22.2143ZM49.6642 24.0967V13.2839H47.2852V14.3783C47.2852 14.4659 47.2412 14.5535 47.153 14.5535C47.065 14.5971 46.9768 14.5534 46.9328 14.5097C46.1398 13.5466 44.9062 13.0212 43.4525 13.0212C40.4567 13.0212 38.1658 15.5165 38.1658 18.7122C38.1658 21.9078 40.5008 24.4031 43.4525 24.4031C44.8182 24.4031 46.0958 23.834 46.9328 22.8271C46.9768 22.7396 47.065 22.7396 47.153 22.7833C47.2412 22.8271 47.2852 22.8709 47.2852 22.9585V24.1405H49.6642V24.0967ZM31.1171 22.2143C29.1787 22.2143 27.6808 20.6821 27.6808 18.7122C27.6808 16.7422 29.1787 15.2101 31.1171 15.2101C33.0115 15.2101 34.5534 16.7422 34.5534 18.7122C34.5534 20.6821 33.0115 22.2143 31.1171 22.2143ZM36.8002 24.0967V8.59982H34.3772V14.4221C34.3772 14.5097 34.3331 14.5971 34.245 14.5971C34.1569 14.6409 34.0688 14.5971 34.0247 14.5535C33.1877 13.5904 31.9541 13.065 30.5444 13.065C27.5487 13.065 25.2578 15.5602 25.2578 18.756C25.2578 20.3319 25.7865 21.7327 26.7997 22.8271C27.7689 23.8778 29.1346 24.4468 30.5884 24.4468C31.9541 24.4468 33.2317 23.8778 34.0688 22.8709C34.1128 22.8271 34.2009 22.7833 34.2891 22.8271C34.3772 22.8709 34.4212 22.9147 34.4212 23.0023V24.1405H36.8002V24.0967Z" fill="#707070"/>
<path d="M19.1245 14.7065L10.0783 19.8372L0.455345 14.3706L0 14.6149V18.5851L10.0783 24.3267L19.1245 19.1959V21.3032L10.0783 26.4339L0.455345 20.9672L0 21.2116V21.8835L10.0783 27.625L20.187 21.8835V17.9132L19.7317 17.6689L10.0783 23.1356L1.06245 18.0048V15.9281L10.0783 21.0283L20.187 15.2868V11.3776L19.6709 11.1028L10.0783 16.5389L1.54812 11.683L10.0783 6.85769L17.121 10.8279L17.7585 10.492V10.0033L10.0783 5.66663L0 11.3776V11.9884L10.0783 17.73L19.1245 12.5992V14.7065Z" fill="#FF3621"/>
</g>
<defs>
<clipPath id="clip0_38625_1278">
<rect width="126.083" height="34" fill="white"/>
</clipPath>
</defs>
</svg>
